<svg xmlns="http://www.w3.org/2000/svg" viewBox="0 0 415.44 157.67"><defs><style>.cls-1{fill:#fff;}</style></defs><title>logo</title><g id="Capa_2" data-name="Capa 2"><g id="Capa_1-2" data-name="Capa 1"><path class="cls-1" d="M157.67,20.23A20.23,20.23,0,0,0,137.44,0H25.82a2.72,2.72,0,0,0,0,5.44H137.44a14.8,14.8,0,0,1,14.79,14.79V39.8h0v97.64a14.81,14.81,0,0,1-14.79,14.79H20.23A14.81,14.81,0,0,1,5.44,137.44V53A2.72,2.72,0,0,0,0,53v84.43a20.23,20.23,0,0,0,20.23,20.23H137.44a20.22,20.22,0,0,0,20.23-20.22V42.6l-.94-.49.94.49Z"/><path class="cls-1" d="M203.79,29.45H186.92a5.19,5.19,0,0,0,2.16,3.25,7.14,7.14,0,0,0,4.23,1.19,8.61,8.61,0,0,0,3.08-.51,7.42,7.42,0,0,0,2.51-1.63l3.44,3.71Q199.19,39,193.14,39a14.72,14.72,0,0,1-6.68-1.46A10.81,10.81,0,0,1,182,33.52a11.12,11.12,0,0,1-1.58-5.89A11.19,11.19,0,0,1,182,21.77a10.75,10.75,0,0,1,4.27-4.08,13.3,13.3,0,0,1,12-.06,10.17,10.17,0,0,1,4.16,4,11.93,11.93,0,0,1,1.52,6.08c0,.08,0,.66-.13,1.73m-15.13-7.13a5.28,5.28,0,0,0-1.82,3.38h11A5.39,5.39,0,0,0,196,22.34a5.47,5.47,0,0,0-3.65-1.25,5.63,5.63,0,0,0-3.69,1.23"/><path class="cls-1" d="M210.3,38.36a14.17,14.17,0,0,1-4.23-1.71L208.23,32a13.49,13.49,0,0,0,3.61,1.54,15.13,15.13,0,0,0,4.14.6q4.11,0,4.11-2A1.41,1.41,0,0,0,219,30.81a16.33,16.33,0,0,0-3.44-.7,35.22,35.22,0,0,1-4.52-.95,7,7,0,0,1-3.09-1.9,5.35,5.35,0,0,1-1.31-3.87,6,6,0,0,1,1.23-3.72,7.85,7.85,0,0,1,3.56-2.54,15.43,15.43,0,0,1,5.54-.9,22,22,0,0,1,4.7.51,13.54,13.54,0,0,1,3.88,1.42l-2.16,4.57a13,13,0,0,0-6.42-1.64,6.62,6.62,0,0,0-3.11.57,1.71,1.71,0,0,0-1,1.48,1.48,1.48,0,0,0,1.12,1.45,20.84,20.84,0,0,0,3.57.78,36.57,36.57,0,0,1,4.47,1,6.7,6.7,0,0,1,3,1.87A5.29,5.29,0,0,1,226.27,32,5.82,5.82,0,0,1,225,35.66a7.8,7.8,0,0,1-3.63,2.49,16,16,0,0,1-5.66.89,22,22,0,0,1-5.43-.68"/><path class="cls-1" d="M234.62,37.58a11.14,11.14,0,0,1,0-19.89A13.85,13.85,0,0,1,241,16.23a12.49,12.49,0,0,1,6.15,1.46A8.71,8.71,0,0,1,251,21.87l-5,2.68a5.47,5.47,0,0,0-5-3.05,5.71,5.71,0,0,0-4.18,1.64,6,6,0,0,0-1.66,4.49,6,6,0,0,0,1.66,4.49A5.67,5.67,0,0,0,241,33.77a5.44,5.44,0,0,0,5-3.05l5,2.72a8.89,8.89,0,0,1-3.84,4.12A12.28,12.28,0,0,1,241,39a13.85,13.85,0,0,1-6.41-1.46"/><path class="cls-1" d="M277.22,16.56V38.71h-6.14V36.08a8.54,8.54,0,0,1-3.07,2.2,10.65,10.65,0,0,1-10.82-1.75q-2.56-2.52-2.57-7.45V16.56h6.47V28.13q0,5.36,4.52,5.35a4.87,4.87,0,0,0,3.73-1.5,6.31,6.31,0,0,0,1.41-4.47v-11Z"/><path class="cls-1" d="M305,29.45H288.08a5.19,5.19,0,0,0,2.16,3.25,7.14,7.14,0,0,0,4.23,1.19,8.61,8.61,0,0,0,3.08-.51,7.42,7.42,0,0,0,2.51-1.63l3.45,3.71Q300.34,39,294.3,39a14.72,14.72,0,0,1-6.68-1.46,10.81,10.81,0,0,1-4.47-4.06,11.12,11.12,0,0,1-1.58-5.89,11.19,11.19,0,0,1,1.56-5.86,10.75,10.75,0,0,1,4.27-4.08,13.3,13.3,0,0,1,12-.06,10.25,10.25,0,0,1,4.17,4,12,12,0,0,1,1.51,6.08c0,.08,0,.66-.12,1.73m-15.14-7.13A5.28,5.28,0,0,0,288,25.7h11a5.34,5.34,0,0,0-1.83-3.36,5.45,5.45,0,0,0-3.65-1.25,5.63,5.63,0,0,0-3.69,1.23"/><rect class="cls-1" x="309.39" y="8.16" width="6.47" height="30.56"/><path class="cls-1" d="M338.83,18.68q2.78,2.45,2.78,7.39V38.71h-6.06V36Q333.73,39,328.75,39a10.67,10.67,0,0,1-4.45-.86,6.75,6.75,0,0,1-2.89-2.39,6.22,6.22,0,0,1-1-3.46,5.76,5.76,0,0,1,2.34-4.86c1.56-1.18,4-1.77,7.24-1.77h5.14a4.06,4.06,0,0,0-1.29-3.23A5.64,5.64,0,0,0,330,21.33a11.4,11.4,0,0,0-3.51.56,9.35,9.35,0,0,0-2.92,1.5l-2.32-4.49a13.93,13.93,0,0,1,4.37-2,19.61,19.61,0,0,1,5.25-.7c3.45,0,6.11.81,8,2.45M333.31,34a4.19,4.19,0,0,0,1.83-2.25V29.45H330.7q-4,0-4,2.59a2.32,2.32,0,0,0,1,2,4.41,4.41,0,0,0,2.67.72,5.69,5.69,0,0,0,2.94-.76"/><path class="cls-1" d="M204.79,57.57V88.13h-6.18V85.58a8.55,8.55,0,0,1-7,2.88,11.65,11.65,0,0,1-5.7-1.4,10.06,10.06,0,0,1-4-4,13.1,13.1,0,0,1,0-12,10.06,10.06,0,0,1,4-4,11.65,11.65,0,0,1,5.7-1.4,8.49,8.49,0,0,1,6.67,2.68V57.57Zm-8,23.95a7,7,0,0,0,0-8.94,5.43,5.43,0,0,0-4.06-1.67,5.49,5.49,0,0,0-4.11,1.67,7,7,0,0,0,0,8.94,5.49,5.49,0,0,0,4.11,1.66,5.42,5.42,0,0,0,4.06-1.66"/><path class="cls-1" d="M211.09,61.85a3.46,3.46,0,0,1,0-5.1,4.1,4.1,0,0,1,2.9-1,4.24,4.24,0,0,1,2.91,1A3.17,3.17,0,0,1,218,59.18a3.49,3.49,0,0,1-1.11,2.65,4.58,4.58,0,0,1-5.81,0M210.76,66h6.47V88.13h-6.47Z"/><path class="cls-1" d="M182.42,111.39a3.45,3.45,0,0,1,0-5.11,4.08,4.08,0,0,1,2.9-1,4.23,4.23,0,0,1,2.9,1,3.18,3.18,0,0,1,1.12,2.47,3.48,3.48,0,0,1-1.12,2.65,4,4,0,0,1-2.9,1,4.12,4.12,0,0,1-2.9-1m-.34,4.11h6.47v22.16h-6.47Z"/><path class="cls-1" d="M246.25,66V84.42q0,6.09-3.2,9.06t-9.32,3a23.59,23.59,0,0,1-6.14-.78,13.43,13.43,0,0,1-4.81-2.26l2.57-4.62a10.54,10.54,0,0,0,3.57,1.84,14.31,14.31,0,0,0,4.31.68q3.36,0,5-1.51a6,6,0,0,0,1.59-4.55V84.3a9.08,9.08,0,0,1-7.05,2.76,12,12,0,0,1-5.62-1.34,10.25,10.25,0,0,1-4-3.77,11.27,11.27,0,0,1,0-11.2,10.25,10.25,0,0,1,4-3.77,12,12,0,0,1,5.62-1.34q4.86,0,7.38,3.17V66Zm-8,14.31a5.55,5.55,0,0,0,0-7.86,6.65,6.65,0,0,0-8.44,0,5.48,5.48,0,0,0,0,7.86,6.69,6.69,0,0,0,8.44,0"/><path class="cls-1" d="M252.59,61.85a3.46,3.46,0,0,1,0-5.1,4.12,4.12,0,0,1,2.9-1,4.24,4.24,0,0,1,2.91,1,3.17,3.17,0,0,1,1.11,2.47,3.49,3.49,0,0,1-1.11,2.65,4.58,4.58,0,0,1-5.81,0M252.26,66h6.47V88.13h-6.47Z"/><path class="cls-1" d="M279.13,87.06a7,7,0,0,1-2.35,1,12,12,0,0,1-2.92.35,8.76,8.76,0,0,1-6.16-2,7.7,7.7,0,0,1-2.17-5.93v-9.1h-3.45V66.47h3.45v-5.4H272v5.4h5.56v4.94H272v9a3,3,0,0,0,.73,2.16,2.69,2.69,0,0,0,2,.76,4.13,4.13,0,0,0,2.61-.82Z"/><path class="cls-1" d="M299.73,68.09q2.77,2.46,2.78,7.39V88.13h-6.05V85.37q-1.83,3.09-6.8,3.09a10.56,10.56,0,0,1-4.46-.87,6.53,6.53,0,0,1-2.88-2.39,6.21,6.21,0,0,1-1-3.46,5.76,5.76,0,0,1,2.35-4.86q2.34-1.77,7.23-1.77H296a4.1,4.1,0,0,0-1.28-3.23,5.74,5.74,0,0,0-3.86-1.13,11,11,0,0,0-3.5.56,9.09,9.09,0,0,0-2.93,1.5l-2.32-4.49a14.23,14.23,0,0,1,4.38-2,19.94,19.94,0,0,1,5.24-.7q5.19,0,8,2.45m-5.51,15.28A4.23,4.23,0,0,0,296,81.13V78.86H291.6q-4,0-4,2.6a2.3,2.3,0,0,0,1,2,4.41,4.41,0,0,0,2.67.72,5.66,5.66,0,0,0,3-.76"/><rect class="cls-1" x="308.35" y="57.57" width="6.47" height="30.55"/><path class="cls-1" d="M214.8,117.53q2.55,2.48,2.55,7.33v12.68h-6.47V125.85a5.7,5.7,0,0,0-1.16-3.93,4.25,4.25,0,0,0-3.36-1.3,5.14,5.14,0,0,0-3.89,1.5,6.18,6.18,0,0,0-1.45,4.47v10.95h-6.47V115.39h6.18V118a8.59,8.59,0,0,1,3.19-2.16,11.16,11.16,0,0,1,4.19-.76,9.2,9.2,0,0,1,6.69,2.47"/><path class="cls-1" d="M243.45,117.53Q246,120,246,124.86v12.68h-6.47V125.85a5.75,5.75,0,0,0-1.16-3.93,4.25,4.25,0,0,0-3.36-1.3,5.14,5.14,0,0,0-3.89,1.5,6.18,6.18,0,0,0-1.46,4.47v10.95H223.2V115.39h6.17V118a8.71,8.71,0,0,1,3.2-2.16,11.12,11.12,0,0,1,4.19-.76,9.2,9.2,0,0,1,6.69,2.47"/><path class="cls-1" d="M256.38,136.41a10.91,10.91,0,0,1-4.37-4.06,11.21,11.21,0,0,1,4.37-15.83,13.54,13.54,0,0,1,6.33-1.46,13.36,13.36,0,0,1,6.3,1.46,11,11,0,0,1,4.35,4.06,11.75,11.75,0,0,1,0,11.77,10.92,10.92,0,0,1-4.35,4.06,13.36,13.36,0,0,1-6.3,1.46,13.54,13.54,0,0,1-6.33-1.46m10.41-5.48a7,7,0,0,0,0-8.93,5.4,5.4,0,0,0-4.08-1.67A5.49,5.49,0,0,0,258.6,122a7,7,0,0,0,0,8.93,5.49,5.49,0,0,0,4.11,1.67,5.4,5.4,0,0,0,4.08-1.67"/><polygon class="cls-1" points="300.77 115.39 291.36 137.54 284.68 137.54 275.31 115.39 281.99 115.39 288.17 130.46 294.55 115.39 300.77 115.39"/><path class="cls-1" d="M319.63,117.51c1.85,1.63,2.78,4.1,2.78,7.39v12.64h-6.05v-2.76q-1.83,3.09-6.8,3.09a10.72,10.72,0,0,1-4.46-.86,6.6,6.6,0,0,1-2.88-2.39,6.22,6.22,0,0,1-1-3.46,5.76,5.76,0,0,1,2.34-4.86q2.34-1.77,7.23-1.77h5.14a4.09,4.09,0,0,0-1.28-3.23,5.67,5.67,0,0,0-3.86-1.14,11.34,11.34,0,0,0-3.5.56,9.24,9.24,0,0,0-2.92,1.5l-2.33-4.48a14,14,0,0,1,4.38-2,19.53,19.53,0,0,1,5.24-.7c3.46,0,6.11.81,8,2.45m-5.51,15.28a4.17,4.17,0,0,0,1.82-2.25v-2.26h-4.43c-2.66,0-4,.86-4,2.59a2.31,2.31,0,0,0,1,2,4.42,4.42,0,0,0,2.68.72,5.75,5.75,0,0,0,2.94-.76"/><path class="cls-1" d="M332.88,136.41a11.14,11.14,0,0,1,0-19.89,13.83,13.83,0,0,1,6.4-1.46,12.55,12.55,0,0,1,6.16,1.46,8.75,8.75,0,0,1,3.84,4.18l-5,2.68a5.49,5.49,0,0,0-5-3,5.71,5.71,0,0,0-4.19,1.65,6.92,6.92,0,0,0,0,9,5.71,5.71,0,0,0,4.19,1.65,5.42,5.42,0,0,0,5-3l5,2.72a8.89,8.89,0,0,1-3.84,4.12,12.34,12.34,0,0,1-6.16,1.48,13.71,13.71,0,0,1-6.4-1.46"/><path class="cls-1" d="M353.34,111.27a3.47,3.47,0,0,1,0-5.11,4.13,4.13,0,0,1,2.9-1,4.2,4.2,0,0,1,2.9,1,3.15,3.15,0,0,1,1.12,2.47,3.47,3.47,0,0,1-1.12,2.66,4.56,4.56,0,0,1-5.8,0m-.33,4.12h6.46v22.15H353Z"/><path class="cls-1" d="M369.78,136.41a10.78,10.78,0,0,1-4.37-4.06,11.75,11.75,0,0,1,0-11.77,10.85,10.85,0,0,1,4.37-4.06,14.37,14.37,0,0,1,12.62,0,11,11,0,0,1,4.35,4.06,11.75,11.75,0,0,1,0,11.77,10.92,10.92,0,0,1-4.35,4.06,14.37,14.37,0,0,1-12.62,0m10.4-5.48a7,7,0,0,0,0-8.93,5.36,5.36,0,0,0-4.08-1.67A5.42,5.42,0,0,0,372,122a7,7,0,0,0,0,8.93,5.42,5.42,0,0,0,4.1,1.67,5.36,5.36,0,0,0,4.08-1.67m-1.52-24.31h.69a1.89,1.89,0,0,1,1.17,3.38l-2.7,2.14a1.94,1.94,0,0,1-1.18.41,1.9,1.9,0,0,1-1.38-3.2l2-2.14a1.9,1.9,0,0,1,1.38-.59"/><path class="cls-1" d="M412.9,117.53c1.7,1.65,2.54,4.09,2.54,7.33v12.68H409V125.85a5.75,5.75,0,0,0-1.16-3.93,4.28,4.28,0,0,0-3.36-1.3,5.18,5.18,0,0,0-3.9,1.5,6.18,6.18,0,0,0-1.45,4.47v10.95h-6.47V115.39h6.18V118a8.67,8.67,0,0,1,3.19-2.16,11.16,11.16,0,0,1,4.19-.76,9.22,9.22,0,0,1,6.7,2.47"/><path class="cls-1" d="M356.12,57.22V87.37H351.2l-.34-2.93A7.73,7.73,0,0,1,344,87.85c-6.26,0-11-4.14-11-11.13,0-7.33,4.62-11.13,10.83-11.13,2.24,0,5.73,1.21,7,3.41V57.22Zm-17.81,19.5a6.1,6.1,0,1,0,12.2,0,6.06,6.06,0,0,0-6.17-6.21,5.86,5.86,0,0,0-6,6.21"/><path class="cls-1" d="M365.65,78.62c.35,2.63,2.63,4.53,6.34,4.53a8.79,8.79,0,0,0,5.7-2l3.36,3.32c-2.24,2.33-5.91,3.45-9.14,3.45-7.33,0-11.69-4.53-11.69-11.34,0-6.47,4.4-11.13,11.3-11.13,7.12,0,11.56,4.4,10.74,13.16Zm11.56-4.36c-.34-2.76-2.5-4.14-5.52-4.14-2.84,0-5.17,1.38-5.95,4.14Z"/></g></g></svg>