<?xml version="1.0" encoding="utf-8"?>
<!-- Generator: Adobe Illustrator 21.0.0, SVG Export Plug-In . SVG Version: 6.00 Build 0)  -->
<svg version="1.1" id="Capa_1" xmlns="http://www.w3.org/2000/svg" xmlns:xlink="http://www.w3.org/1999/xlink" x="0px" y="0px"
	 viewBox="0 0 552.6 588.6" enable-background="new 0 0 552.6 588.6" xml:space="preserve">
<g>
	<g>
		<g>
			<path fill="#FFFFFF" d="M93,430.5L90.7,506h3.2l24.1-75.5h27.1l-34.2,99.7H69.4l3.7-63.8l-18.6,63.8H13l1-99.7h27.1L38.6,506h3.2
				L66,430.5H93z"/>
			<path fill="#FFFFFF" d="M213.4,512.5c2.1,0,4-0.5,5.7-1.4l-0.7,15.6c-4.3,3.6-9.3,5.4-14.8,5.4c-12.6,0-18.8-5.3-18.8-15.8
				c0-1.8,0.2-3.8,0.6-6l3-17c0.3-1.7,0.4-3.3,0.4-5c0-4.4-2.3-6.6-7-6.6c-4.7,0-8.3,1.6-10.9,4.7l-7.8,43.8h-23.5l18.6-105.1h23.5
				l-7.9,44.7c5.1-5.4,11.4-8.2,19.1-8.2c9.3,0,15.4,2.1,18.1,6.2c1.9,2.8,2.9,5.9,2.9,9.3c0,3.4-0.3,6.6-0.8,9.4l-3.7,20.6
				c-0.1,0.6-0.1,1.1-0.1,1.5C209.2,511.2,210.6,512.5,213.4,512.5z"/>
			<path fill="#FFFFFF" d="M292.2,508.9c0,2.4,1.2,3.6,3.7,3.6c2.4,0,4.5-0.5,6.2-1.4l-0.7,15.6c-4.4,3.6-9.4,5.4-15,5.4
				c-10.2,0-15.8-3.7-16.9-11.1c-4.6,7.4-11.4,11.1-20.4,11.1c-15.1,0-22.7-6.5-22.7-19.5c0-2.2,0.2-4.7,0.7-7.3l2.9-16.2
				c1.5-8.3,4.9-14.9,10.2-19.9c5.3-4.9,12.2-7.4,20.8-7.4c8.5,0,14.3,2,17.4,6l0.7-4.2h21l-7.8,43.6
				C292.2,507.8,292.2,508.3,292.2,508.9z M251.2,502.2c-0.2,0.8-0.3,2-0.3,3.5c0,1.5,0.7,2.9,2.1,4.4c1.4,1.4,3.7,2.1,7,2.1
				c3.3,0,6.1-1.3,8.5-3.9l4.2-23.3c-1-2.3-3.4-3.5-7.2-3.5c-7.1,0-11.3,3.4-12.5,10.2L251.2,502.2z"/>
			<path fill="#FFFFFF" d="M340.2,532.2c-10.7,0-18.4-2.4-23.1-7.2c-3.5-3.5-5.3-8.2-5.3-14.1c0-1.9,0.2-4,0.6-6.2l9.4-53.6
				l25.3-10.5l-4,23.1h38.2l-3.5,19.5h-38.2l-2.8,15.6c-0.4,1.8-0.6,3.3-0.6,4.7c0,5.8,2.8,8.7,8.3,8.7c3,0,5.4-1.2,7.4-3.7
				c2-2.5,3.3-5.8,4.1-10h23C375.2,520.9,362.3,532.2,340.2,532.2z"/>
			<path fill="#FFFFFF" d="M458.5,512.5c2.1,0,4-0.5,5.7-1.4l-0.7,15.6c-4.3,3.6-9.3,5.4-14.8,5.4c-12.6,0-18.8-5.3-18.8-15.8
				c0-1.8,0.2-3.8,0.6-6l3-17c0.3-1.7,0.4-3.3,0.4-5c0-4.4-2.3-6.6-7-6.6c-4.7,0-8.3,1.6-10.9,4.7l-7.8,43.8h-23.5l18.6-105.1h23.5
				l-7.9,44.7c5.1-5.4,11.4-8.2,19.1-8.2c9.3,0,15.4,2.1,18.1,6.2c1.9,2.8,2.9,5.9,2.9,9.3c0,3.4-0.3,6.6-0.8,9.4l-3.7,20.6
				c-0.1,0.6-0.1,1.1-0.1,1.5C454.3,511.2,455.7,512.5,458.5,512.5z"/>
			<path fill="#FFFFFF" d="M537.2,508.9c0,2.4,1.2,3.6,3.7,3.6c2.4,0,4.5-0.5,6.2-1.4l-0.7,15.6c-4.4,3.6-9.4,5.4-15,5.4
				c-10.2,0-15.8-3.7-16.9-11.1c-4.6,7.4-11.4,11.1-20.4,11.1c-15.1,0-22.7-6.5-22.7-19.5c0-2.2,0.2-4.7,0.7-7.3l2.9-16.2
				c1.5-8.3,4.9-14.9,10.2-19.9c5.3-4.9,12.2-7.4,20.8-7.4c8.5,0,14.3,2,17.4,6l0.7-4.2h21l-7.8,43.6
				C537.3,507.8,537.2,508.3,537.2,508.9z M496.3,502.2c-0.2,0.8-0.3,2-0.3,3.5c0,1.5,0.7,2.9,2.1,4.4c1.4,1.4,3.7,2.1,7,2.1
				c3.3,0,6.1-1.3,8.5-3.9l4.2-23.3c-1-2.3-3.4-3.5-7.2-3.5c-7.1,0-11.3,3.4-12.5,10.2L496.3,502.2z"/>
		</g>
	</g>
	<g opacity="0.6">
		<path fill="#FFFFFF" d="M418.6,2.3v106.1h2.3l-1.6-1.6L419,107c-0.8,0.7-0.9,1.9-0.4,2.8c0.1,0.1,0.2,0.3,0.2,0.4l2.1-1.1h-2.3
			v154.1h2.3l-2-1.1c-1.9,3.4-3.9,6.8-6.1,10l3.9,2.5c2.2-3.4,4.3-6.8,6.3-10.3c0.2-0.3,0.3-0.7,0.3-1.1V109.2
			c0-0.4-0.1-0.7-0.3-1.1c-0.1-0.2-0.2-0.4-0.4-0.6l-2,1.2l1.6,1.6l0.3-0.3c0.4-0.4,0.7-1,0.7-1.6V2.3H418.6L418.6,2.3z"/>
		<path fill="#FFFFFF" d="M313.2,172L313.2,172c-0.4,0.4-0.7,1-0.7,1.6c0,0.6,0.2,1.2,0.7,1.6l20.4,20.4c0.4,0.4,1,0.7,1.6,0.7h0
			v-2.3l-1.6,1.6l79.5,79.5l1.6-1.6l-1.9-1.3c-1.4,2.1-2.8,4.1-4.2,6.1c-8.3,11.3-18,21.5-28.9,30.2l1.4,1.8l0-2.3
			c-0.3,0-0.6,0-0.8,0c-29.7,0-56.4,12.9-74.8,33.4l3.4,3.1c17.5-19.6,43-31.8,71.3-31.8c0.3,0,0.5,0,0.7,0c0.5,0,1.1-0.2,1.5-0.5
			c11.3-9,21.3-19.4,29.8-31.1c1.5-2.1,2.9-4.1,4.3-6.3c0.6-0.9,0.5-2.1-0.3-2.9l-79.5-79.5c-0.4-0.4-1-0.7-1.6-0.7h0v2.3l1.6-1.6
			L316.4,172l-1.6,1.6l1.6,1.6l0,0L313.2,172L313.2,172z"/>
		<path fill="#FFFFFF" d="M284.5,408.5c0-24.6,9.2-47,24.5-63.9l-1.7-1.5l0.4,2.3c28-4.4,53.7-16.1,74.9-33.1l-1.4-1.8l0,2.3
			c2.9,0,5.7,0.2,8.5,0.4l0.2-2.3l-1.6-1.6L281,416.4l3.3,3.3l107.1-107.1c0.6-0.6,0.8-1.6,0.5-2.4c-0.3-0.8-1.1-1.4-2-1.5
			c-2.9-0.3-5.9-0.4-8.9-0.5c-0.5,0-1,0.2-1.5,0.5c-20.6,16.5-45.5,27.8-72.8,32.1c-0.5,0.1-1,0.3-1.4,0.7
			c-15.9,17.8-25.6,41.3-25.6,67H284.5L284.5,408.5z"/>
		<path fill="#FFFFFF" d="M337.2,154.4L387,66.6l12.1-21.4l-10.8,24.2l-42.7,95.5l-12.6,28.2l2.1,0.9l-1.6-1.6l0,0l3.3,3.3l0,0
			c0.2-0.2,0.4-0.4,0.5-0.7l12.6-28.2l42.7-95.5L423,3.3c0.5-1.1,0-2.4-1.1-3c-1.1-0.6-2.4-0.2-3,0.9L383,64.4l-49.8,87.8
			L337.2,154.4L337.2,154.4z"/>
		<path fill="#FFFFFF" d="M280.5,101.9l20.4,20.4l32,32v34.3L316.4,172l-32.6-32.6l-3.3,3.3l32.6,32.6l20.4,20.4
			c0.7,0.7,1.7,0.9,2.5,0.5c0.9-0.4,1.4-1.2,1.4-2.1v-40.8c0-0.6-0.2-1.2-0.7-1.6L304.2,119l-20.4-20.4L280.5,101.9L280.5,101.9z"/>
		<path fill="#FFFFFF" d="M279.9,408.5c0,3.3,0.2,6.5,0.5,9.7l2.3-0.2l-1.6-1.6l-0.5,0.5l3.3,3.3l0.5-0.5c0.5-0.5,0.7-1.2,0.7-1.9
			c-0.3-3.1-0.4-6.2-0.4-9.3H279.9L279.9,408.5z"/>
		<path fill="#FFFFFF" d="M279.9,408.5v10h2.3l1.6-1.6l-0.5-0.5l-3.3,3.3l0.5,0.5c0.7,0.7,1.7,0.9,2.5,0.5c0.9-0.4,1.4-1.2,1.4-2.1
			v-10H279.9L279.9,408.5z"/>
		<path fill="#FFFFFF" d="M258.8,341.5c-18.4-20.5-45.1-33.4-74.8-33.4c-0.3,0-0.5,0-0.8,0l0,2.3l1.4-1.8
			c-10.9-8.7-20.7-18.9-28.9-30.2c-1.5-2-2.9-4-4.2-6.1l-3.9,2.5c1.4,2.1,2.8,4.2,4.3,6.3c8.5,11.7,18.5,22.1,29.8,31.1
			c0.4,0.3,0.9,0.5,1.5,0.5c0.2,0,0.5,0,0.7,0c28.3,0,53.8,12.3,71.3,31.8L258.8,341.5L258.8,341.5z"/>
		<polyline fill="#FFFFFF" points="279.9,141 279.9,408.5 284.5,408.5 284.5,141 		"/>
		<path fill="#FFFFFF" d="M282.2,408.5h-2.3c0,3.1-0.2,6.2-0.4,9.3l2.3,0.2l1.6-1.6L176.2,309.2l-1.6,1.6l0.2,2.3
			c2.8-0.3,5.7-0.4,8.5-0.4l0-2.3l-1.4,1.8c21.2,17,46.9,28.6,74.9,33.1l0.4-2.3l-1.7,1.5c15.2,17,24.5,39.4,24.5,63.9H282.2h2.3
			c0-25.7-9.7-49.2-25.6-67c-0.4-0.4-0.8-0.7-1.4-0.7c-27.2-4.3-52.1-15.7-72.8-32.1c-0.4-0.3-0.9-0.5-1.5-0.5c-3,0-6,0.2-8.9,0.5
			c-0.9,0.1-1.7,0.7-2,1.5c-0.3,0.8-0.1,1.8,0.5,2.4l107.1,107.1c0.6,0.6,1.6,0.8,2.4,0.5c0.8-0.3,1.4-1.1,1.5-2
			c0.3-3.2,0.5-6.5,0.5-9.7H282.2z"/>
		<path fill="#FFFFFF" d="M230.8,154.9l32.6-32.6l16.5-16.5v34.3l-32,32l-20.4,20.4l3.3,3.3l20.4-20.4l32.6-32.6
			c0.4-0.4,0.7-1,0.7-1.6v-40.8c0-0.9-0.6-1.8-1.4-2.1c-0.9-0.4-1.9-0.2-2.5,0.5L260.1,119l-32.6,32.6L230.8,154.9L230.8,154.9z"/>
		<path fill="#FFFFFF" d="M141.5,3.4l35.9,63.2l49.5,87.2l0,40.2h4.6l0-40.8c0-0.4-0.1-0.8-0.3-1.1l-49.8-87.8L145.5,1.2L141.5,3.4
			L141.5,3.4z"/>
		<path fill="#FFFFFF" d="M229.1,194.1l-1.6-1.6l0,0L148,271.9l1.6,1.6l1.9-1.3c-2.2-3.3-4.2-6.6-6.1-10l-2,1.1h2.3V109.2h-2.3
			l2,1.1c0.1-0.2,0.2-0.4,0.3-0.5c0.5-0.9,0.4-2.1-0.4-2.8l-0.3-0.3l-1.6,1.6h2.3V13.1l26,58.2l42.7,95.5L227,195
			c0.1,0.2,0.3,0.5,0.4,0.7l0,0L229.1,194.1l-1.6-1.6L229.1,194.1l1.7-1.6l0,0L229.1,194.1l2.1-1l-12.6-28.2L176,69.4l-30.4-68
			c-0.4-1-1.5-1.5-2.6-1.3s-1.8,1.2-1.8,2.3v106.1c0,0.6,0.3,1.2,0.7,1.6l0.3,0.3l1.6-1.6l-2-1.2c-0.1,0.2-0.2,0.4-0.3,0.6
			c-0.2,0.4-0.3,0.7-0.3,1.1v154.2c0,0.4,0.1,0.8,0.3,1.1c2,3.5,4,7,6.3,10.3c0.4,0.6,1,1,1.7,1c0.7,0.1,1.4-0.2,1.9-0.7l79.5-79.5
			l0,0c0.9-0.9,0.9-2.3,0-3.2L229.1,194.1z"/>
	</g>
</g>
<g>
</g>
<g>
</g>
<g>
</g>
<g>
</g>
<g>
</g>
<g>
</g>
<g>
</g>
<g>
</g>
<g>
</g>
<g>
</g>
<g>
</g>
<g>
</g>
<g>
</g>
<g>
</g>
<g>
</g>
</svg>
